<?xml version="1.0" encoding="utf-8"?>
<!-- Generator: Adobe Illustrator 22.0.1, SVG Export Plug-In . SVG Version: 6.00 Build 0)  -->
<svg version="1.1" id="Ebene_1" xmlns="http://www.w3.org/2000/svg" xmlns:xlink="http://www.w3.org/1999/xlink" x="0px" y="0px"
	 viewBox="0 0 534 303" style="enable-background:new 0 0 534 303;" xml:space="preserve">
<style type="text/css">
	.st0{fill:#FFDE44;}
</style>
<g>
	<path class="st0" d="M237.3,167.2c0,5.6-1.1,10.5-3.3,14.7c-2.6,4.9-6.5,8.8-11.7,11.6c-5.2,2.8-11.4,4.2-18.5,4.2
		c-6.8,0-12.8-1.4-18.1-4.1c-5.2-2.7-9.2-6.7-11.9-12c-2.3-4.5-3.5-9.4-3.5-14.6c0-5.4,1.1-10.4,3.3-15c1.8-3.4,4.3-6.1,7.3-8.4
		c0.6-0.5,0.6-0.9,0-1.2c-2.6-1.9-4.8-4.3-6.6-7.2c-2.3-3.8-3.5-8.2-3.5-13.1c0-6,1.6-11.2,4.8-15.7c2.8-4,6.7-7.2,11.6-9.4
		c4.9-2.2,10.5-3.3,16.6-3.3c7,0,13.1,1.3,18.2,3.9c5.1,2.6,9,6.4,11.6,11.5c2.2,4.2,3.3,8.6,3.3,13.1c0,4.7-1.2,8.9-3.6,12.7
		c-1.9,2.8-4.2,5.2-6.9,7.3c-0.6,0.3-0.6,0.7,0,1.2c3.4,2.1,5.9,5,7.6,8.6C236.2,156.4,237.3,161.4,237.3,167.2z M191.1,124.7
		c0,3,0.7,5.5,2,7.6c1.1,1.8,2.5,3.2,4.4,4.1c1.9,0.9,4,1.4,6.4,1.4c5.3,0,9-1.9,11.2-5.6c1.2-2.1,1.9-4.7,1.9-7.6
		c0-2.7-0.5-4.9-1.4-6.8c-2.2-4.3-6.1-6.5-11.7-6.5c-2.6,0-4.9,0.6-6.8,1.7c-2,1.1-3.5,2.6-4.5,4.5
		C191.5,119.4,191.1,121.8,191.1,124.7z M217,165.2c0-2.8-0.5-5.3-1.4-7.5c-1.1-2.3-2.6-4.1-4.5-5.3c-2-1.2-4.3-1.9-7.1-1.9
		c-5.2,0-8.9,2.4-11.2,7.1c-1.1,2.3-1.6,4.9-1.6,7.9c0,3.8,0.8,7.1,2.3,9.7c2.3,3.7,5.8,5.5,10.5,5.5c4.6,0,8.1-1.7,10.4-5
		C216.1,172.8,217,169.3,217,165.2z"/>
</g>
</svg>
