<?xml version="1.0" encoding="utf-8"?>
<!-- Generator: Adobe Illustrator 22.0.1, SVG Export Plug-In . SVG Version: 6.00 Build 0)  -->
<svg version="1.1" id="Ebene_1" xmlns="http://www.w3.org/2000/svg" xmlns:xlink="http://www.w3.org/1999/xlink" x="0px" y="0px"
	 viewBox="0 0 534 303" style="enable-background:new 0 0 534 303;" xml:space="preserve">
<style type="text/css">
	.st0{fill:#252525;}
	.st1{fill:none;stroke:#FFDD00;stroke-width:3;}
	.st2{fill:#FFDD00;}
</style>
<g>
	<path class="st0" d="M65.9,35.7c0,0-26,0-26,26v145c0,0,0,26,26,26h401c0,0,26,0,26-26v-145c0,0,0-26-26-26H65.9"/>
	<path class="st1" d="M65.9,35.7c0,0-26,0-26,26v145c0,0,0,26,26,26h401c0,0,26,0,26-26v-145c0,0,0-26-26-26H65.9"/>
	<path class="st2" d="M275.6,189.9c0,0-23.2,0-23.2,23.2v37.4c0,0,0,23.2,23.2,23.2H435c0,0,23.2,0,23.2-23.2v-37.4
		c0,0,0-23.2-23.2-23.2H275.6"/>
	<path class="st0" d="M438.7,225.3v-6c0-0.9-0.4-1.3-1.3-1.3h-6.8c-0.3,0-0.5-0.2-0.5-0.5V209c0-0.9-0.4-1.3-1.3-1.3h-7.7
		c-0.9,0-1.3,0.4-1.3,1.3v8.6c0,0.3-0.2,0.5-0.5,0.5h-3.9c-0.9,0-1.3,0.4-1.3,1.3v6c0,0.9,0.4,1.3,1.3,1.3h3.9
		c0.3,0,0.5,0.2,0.5,0.5v19.9c0,3.8,1.1,6.5,3.2,7.9c2.1,1.4,5.2,2.1,9.4,2.1c0.9,0,2.3,0,4.2-0.2c0.9-0.1,1.3-0.6,1.3-1.4v-6.5
		c0-0.9-0.4-1.3-1.3-1.3h-2.1c-1.5,0-2.6-0.4-3.3-1.2c-0.7-0.8-1-2-1-3.7V227c0-0.3,0.2-0.5,0.5-0.5h6.8
		C438.3,226.6,438.7,226.2,438.7,225.3 M397.7,219.3v23.5c-0.3,1.7-0.9,3-2,4.1c-1.1,1-2.5,1.6-4.2,1.6c-1.9,0-3.4-0.6-4.5-1.9
		c-1.1-1.3-1.6-2.9-1.6-4.9v-22.3c0-0.9-0.4-1.3-1.3-1.3h-8c-0.9,0-1.3,0.4-1.3,1.3v25c0,4.2,1.2,7.5,3.7,9.8
		c2.5,2.3,5.6,3.5,9.5,3.5c4.3,0,7.4-1.3,9.3-4c0.1-0.2,0.2-0.2,0.3-0.2c0.1,0,0.2,0.1,0.2,0.3v2c0,0.9,0.4,1.3,1.3,1.3h8.1
		c0.9,0,1.3-0.4,1.3-1.3v-36.4c0-0.9-0.4-1.3-1.3-1.3H399C398.2,218,397.7,218.4,397.7,219.3 M350,248.4c-1.7,0-3.2-0.5-4.4-1.5
		c-1.2-1-2-2.4-2.5-4.2c-0.4-1.5-0.6-3.2-0.6-5.3c0-2.1,0.2-3.9,0.6-5.4c0.5-1.7,1.3-3.1,2.5-4c1.2-1,2.6-1.4,4.2-1.4
		c1.7,0,3.2,0.5,4.3,1.4c1.2,1,2,2.3,2.5,4c0.4,1.5,0.6,3.3,0.6,5.4c0,2.2-0.2,3.9-0.6,5.3c-0.5,1.8-1.3,3.2-2.5,4.2
		C353,247.9,351.6,248.4,350,248.4 M350,257.6c4.2,0,7.8-1.1,10.8-3.4c3-2.3,5.1-5.4,6.3-9.3c0.7-2.5,1-5,1-7.7c0-3-0.4-5.6-1.1-8
		c-1.2-3.7-3.2-6.6-6.2-8.7c-3-2.1-6.5-3.2-10.7-3.2c-4.3,0-8,1.1-11,3.2c-3,2.1-5.1,5.1-6.3,8.8c-0.8,2.3-1.1,5-1.1,8
		c0,2.8,0.4,5.4,1.1,7.7c1.1,3.8,3.2,6.9,6.2,9.1C342,256.5,345.7,257.6,350,257.6 M315.6,225.3v-6c0-0.9-0.4-1.3-1.3-1.3h-6.8
		c-0.3,0-0.5-0.2-0.5-0.5V209c0-0.9-0.4-1.3-1.3-1.3H298c-0.9,0-1.3,0.4-1.3,1.3v8.6c0,0.3-0.2,0.5-0.5,0.5h-3.9
		c-0.9,0-1.3,0.4-1.3,1.3v6c0,0.9,0.4,1.3,1.3,1.3h3.9c0.3,0,0.5,0.2,0.5,0.5v19.9c0,3.8,1.1,6.5,3.2,7.9c2.1,1.4,5.2,2.1,9.4,2.1
		c0.9,0,2.3,0,4.2-0.2c0.9-0.1,1.3-0.6,1.3-1.4v-6.5c0-0.9-0.4-1.3-1.3-1.3h-2.1c-1.5,0-2.6-0.4-3.3-1.2c-0.7-0.8-1-2-1-3.7V227
		c0-0.3,0.2-0.5,0.5-0.5h6.8C315.2,226.6,315.6,226.2,315.6,225.3 M275.4,257h8.1c0.9,0,1.3-0.4,1.3-1.3v-36.4
		c0-0.9-0.4-1.3-1.3-1.3h-8.1c-0.9,0-1.3,0.4-1.3,1.3v36.4C274.1,256.6,274.5,257,275.4,257 M279.4,214.3c2,0,3.6-0.6,4.7-1.7
		c1.2-1.2,1.8-2.7,1.8-4.6c0-1.9-0.6-3.5-1.8-4.6c-1.2-1.2-2.8-1.7-4.7-1.7c-1.9,0-3.5,0.6-4.7,1.8c-1.2,1.2-1.8,2.7-1.8,4.6
		c0,1.9,0.6,3.4,1.8,4.6C275.9,213.7,277.5,214.3,279.4,214.3"/>
	<path class="st2" d="M298.5,102.2v43.4c-0.5,3.1-1.7,5.6-3.8,7.5c-2.1,1.9-4.7,2.9-7.8,2.9c-3.5,0-6.3-1.2-8.3-3.5
		c-2-2.3-3-5.4-3-9.1v-41.2c0-1.6-0.8-2.4-2.4-2.4h-14.8c-1.6,0-2.4,0.8-2.4,2.4v46.1c0,7.7,2.3,13.8,6.9,18.1
		c4.6,4.3,10.4,6.4,17.5,6.4c7.8,0,13.6-2.5,17.2-7.4c0.2-0.3,0.4-0.4,0.6-0.3c0.2,0,0.4,0.3,0.4,0.6v3.8c0,1.6,0.8,2.4,2.4,2.4h15
		c1.6,0,2.4-0.8,2.4-2.4v-67.2c0-1.6-0.8-2.4-2.4-2.4h-15C299.3,99.8,298.5,100.6,298.5,102.2"/>
	<path class="st2" d="M374.9,98.9c-6.3,0-11.4,2.7-15.1,8.1c-0.3,0.3-0.5,0.4-0.7,0.3c-0.2-0.1-0.3-0.3-0.3-0.7v-4.3
		c0-1.6-0.8-2.4-2.4-2.4h-15c-1.6,0-2.4,0.8-2.4,2.4v67.2c0,1.6,0.8,2.4,2.4,2.4h15c1.6,0,2.4-0.8,2.4-2.4v-37.5
		c0-3.6,1.2-6.6,3.5-8.7c2.3-2.2,5.2-3.4,8.5-3.7c1.5-0.2,2.6-0.3,3.2-0.3c1.2,0,2.6,0.2,4.1,0.6c0.9,0.2,1.6,0.2,2,0
		c0.4-0.2,0.7-0.7,0.8-1.5l2.7-14.7c0.3-1.4-0.1-2.4-1.3-2.9C380.4,99.4,377.9,98.9,374.9,98.9"/>
	<path class="st2" d="M427,115.7c3.2,0,5.8,0.8,7.8,2.4c2.1,1.6,3.5,3.7,4.3,6.4c0.4,1.1,0.6,2.2,0.6,3.2c0,0.4-0.2,0.6-0.7,0.6
		h-23.8c-0.6,0-0.8-0.3-0.7-0.8c0.1-0.6,0.4-1.7,0.8-3.5c0.7-2.6,2.1-4.6,4.1-6.1C421.5,116.4,424,115.7,427,115.7 M430.7,156.3
		c-3.9,0-7.3-0.8-10-2.3c-2.8-1.5-4.6-3.8-5.5-6.6c-0.4-0.9-0.7-2.4-1-4.3c0-0.6,0.3-0.8,0.8-0.8h43c1.6,0,2.4-0.8,2.4-2.4
		c-0.2-3.7-0.5-7.1-0.8-10.2c-1.6-9.8-5.1-17.4-10.4-22.8c-5.4-5.4-12.6-8.1-21.8-8.1c-7.7,0-14.4,2.1-20.1,6.3
		c-5.6,4.2-9.4,9.8-11.3,16.7c-1,3.7-1.5,8.3-1.5,13.7c0,4.6,0.6,8.9,1.7,13c2,7.7,5.8,13.7,11.4,18.1c5.6,4.4,12.8,6.6,21.4,6.6
		c5.7,0,10.9-1.1,15.8-3.3c4.8-2.2,8.8-5.2,11.8-9c0.4-0.5,0.6-1,0.6-1.7c0-0.6-0.3-1.1-0.8-1.7l-8-7.7c-0.5-0.5-1-0.7-1.5-0.7
		c-0.7,0-1.3,0.3-1.8,1C441.5,153.8,436.8,156,430.7,156.3"/>
	<path class="st2" d="M215.6,137.6c-2,3.8-5.5,5.7-10.5,5.7c-4.5,0-7.9-1.9-10.2-5.6c-1.5-2.4-2.2-5.5-2.2-9.2
		c0-3.5,0.7-6.5,2.1-8.8c2.1-4.1,5.6-6.2,10.5-6.2c5,0,8.6,2.1,10.6,6.2c1.2,2.3,1.8,5.2,1.8,8.5C217.7,132,217,135.2,215.6,137.6
		 M235.1,115.2c-2.3-5.9-6.1-10.5-11.3-13.8c-5.2-3.3-11.4-5-18.6-5c-7,0-13.1,1.6-18.2,4.8c-5.1,3.2-8.9,7.5-11.3,13
		c-1.8,4.3-2.7,9.1-2.7,14.6c0,6.5,1.1,11.9,3.4,16.1c2.5,4.9,6,8.6,10.4,11.1c4.4,2.6,9.5,3.8,15.1,3.8c6.2,0,11.2-1.6,15.1-4.8
		c0.3-0.3,0.5-0.4,0.7-0.3c0.2,0.1,0.3,0.3,0.3,0.7v12.9c0,3.3-1.1,5.9-3.3,8c-2.2,2.1-5,3.2-8.5,3.2c-3.3,0-5.9-1-8-3.1
		c-2.1-2.1-3.1-4.6-3.1-7.7v-1.5c0-0.9-0.8-1.4-2.4-1.4h-15c-1.6,0-2.4,0.8-2.4,2.4v3.2c0,4.9,1.3,9.3,3.8,13.1
		c2.6,3.8,6.2,6.7,10.9,8.8c4.7,2.1,10,3.1,16.1,3.1c6.2,0,11.6-1,16.4-3.1s8.5-5.1,11.1-9c2.7-3.9,4-8.3,4-13.4v-42.1
		C237.6,123.8,236.7,119.2,235.1,115.2"/>
	<path class="st2" d="M115.1,98.1h-12.7c-0.6,0-0.8-0.3-0.8-0.8v-1.4c0-3.4,0.6-5.7,1.9-6.9c1.3-1.3,3.5-1.9,6.8-2h3.9
		c1.6,0,2.4-0.8,2.4-2.4v-9.9c0-1.6-0.8-2.4-2.4-2.4h-4.6c-7-0.2-12.5,0.4-16.4,1.8c-4,1.4-6.8,3.6-8.6,6.9
		c-1.8,3.2-2.7,7.7-2.7,13.5v2.9c0,0.6-0.3,0.8-0.8,0.8h-7.4c-1.6,0-2.4,0.8-2.4,2.4v11.9c0,1.6,0.8,2.4,2.4,2.4h7.4
		c0.6,0,0.8,0.3,0.8,0.8v52.2c0,1.6,0.8,2.4,2.4,2.4h15c1.6,0,2.4-0.8,2.4-2.4v-52.2c0-0.6,0.3-0.8,0.8-0.8h12.7
		c1.6,0,2.4-0.8,2.4-2.4v-11.9C117.5,98.9,116.7,98.1,115.1,98.1"/>
	<path class="st2" d="M137.5,170.2h15c1.6,0,2.4-0.8,2.4-2.4v-67.2c0-1.6-0.8-2.4-2.4-2.4h-15c-1.6,0-2.4,0.8-2.4,2.4v67.2
		C135.1,169.4,135.9,170.2,137.5,170.2 M144.9,91.4c3.6,0,6.6-1.1,8.8-3.2c2.2-2.1,3.3-5,3.3-8.5c0-3.5-1.1-6.4-3.3-8.5
		c-2.2-2.1-5.1-3.2-8.8-3.2c-3.5,0-6.4,1.1-8.7,3.3c-2.2,2.2-3.4,5-3.4,8.5c0,3.5,1.1,6.3,3.4,8.5C138.5,90.3,141.4,91.4,144.9,91.4
		"/>
</g>
</svg>
