<?xml version="1.0" encoding="utf-8"?>
<!-- Generator: Adobe Illustrator 22.0.1, SVG Export Plug-In . SVG Version: 6.00 Build 0)  -->
<svg version="1.1" id="Ebene_1" xmlns="http://www.w3.org/2000/svg" xmlns:xlink="http://www.w3.org/1999/xlink" x="0px" y="0px"
	 viewBox="0 0 534 303" style="enable-background:new 0 0 534 303;" xml:space="preserve">
<style type="text/css">
	.st0{fill:#252525;}
</style>
<g>
	<path class="st0" d="M237.9,164.3c0,4.9-0.8,9.3-2.3,13.3c-2.2,6.1-6.1,11-11.7,14.6c-5.6,3.6-12.1,5.4-19.6,5.4
		c-7.3,0-13.7-1.8-19.2-5.3c-5.5-3.5-9.4-8.3-11.7-14.3c-0.9-1.9-1.5-4.3-2-7.2v-0.6c0-1.3,0.8-2,2.3-2h16c1.3,0,2.3,0.7,2.7,2
		c0.1,0.3,0.3,1,0.7,2c0.9,2.5,2.3,4.4,4.3,5.8c2,1.3,4.3,2,7,2c2.5,0,4.7-0.6,6.5-1.8c1.8-1.2,3.2-2.8,4.2-4.8
		c0.8-1.7,1.2-2.6,1.2-2.7c0.7-1.9,1-3.9,1-5.9c0.2-2.7-0.2-5.3-1.3-7.9c-0.7-2.5-2-4.4-4-5.8c-2-1.3-4.5-2-7.5-2
		c-2.4,0-4.6,0.4-6.6,1.3c-2,0.9-3.5,2.2-4.5,4c-0.7,1.2-1.6,1.9-2.9,1.9h-16.6c-1.6,0-2.4-0.8-2.4-2.4V98.2c0-1.6,0.8-2.4,2.4-2.4
		h58.1c1.6,0,2.4,0.8,2.4,2.4v12.5c0,1.6-0.8,2.4-2.4,2.4h-39.3c-0.2,0-0.4,0.1-0.6,0.3c-0.2,0.2-0.3,0.4-0.3,0.6l-0.1,20.9
		c0,0.4,0.1,0.6,0.3,0.7c0.2,0.1,0.4,0,0.7-0.1c4.4-2.7,9.4-4,14.8-4c6.7,0,12.6,1.7,17.6,5.1c5,3.4,8.6,8.1,10.7,14
		C237.2,155.3,237.9,159.9,237.9,164.3z"/>
</g>
</svg>
