<?xml version="1.0" encoding="utf-8"?>
<!-- Generator: Adobe Illustrator 22.0.1, SVG Export Plug-In . SVG Version: 6.00 Build 0)  -->
<svg version="1.1" id="Ebene_1" xmlns="http://www.w3.org/2000/svg" xmlns:xlink="http://www.w3.org/1999/xlink" x="0px" y="0px"
	 viewBox="0 0 534 303" style="enable-background:new 0 0 534 303;" xml:space="preserve">
<style type="text/css">
	.st0{fill:#252525;}
</style>
<g>
	<path class="st0" d="M245.4,155.1v13.1c0,1.6-0.8,2.4-2.4,2.4h-5.2c-0.6,0-0.9,0.3-0.9,0.9v22.6c0,1.6-0.8,2.4-2.4,2.4H219
		c-1.6,0-2.4-0.8-2.4-2.4v-22.6c0-0.6-0.3-0.9-0.9-0.9h-43.5c-1.6,0-2.4-0.8-2.4-2.4v-10.4c0-1,0.2-2,0.6-3L196,97.6
		c0.7-1.2,1.6-1.9,2.9-1.9h16.4c1.4,0,2.2,0.6,2.2,1.7l-0.3,1.2l-23.6,53c-0.3,0.7,0,1,0.7,1h21.5c0.6,0,0.9-0.3,0.9-0.9v-17
		c0-1.6,0.8-2.4,2.4-2.4h15.4c1.6,0,2.4,0.8,2.4,2.4v17c0,0.6,0.3,0.9,0.9,0.9h5.2C244.6,152.6,245.4,153.5,245.4,155.1z"/>
</g>
</svg>
