<?xml version="1.0" encoding="utf-8"?>
<!-- Generator: Adobe Illustrator 22.0.1, SVG Export Plug-In . SVG Version: 6.00 Build 0)  -->
<svg version="1.1" id="Ebene_1" xmlns="http://www.w3.org/2000/svg" xmlns:xlink="http://www.w3.org/1999/xlink" x="0px" y="0px"
	 viewBox="0 0 534 303" style="enable-background:new 0 0 534 303;" xml:space="preserve">
<style type="text/css">
	.st0{fill:#FFDD00;}
</style>
<path class="st0" d="M215.6,140.4c-2,3.8-5.5,5.7-10.5,5.7c-4.5,0-7.9-1.9-10.2-5.6c-1.5-2.4-2.2-5.5-2.2-9.2c0-3.5,0.7-6.5,2.1-8.8
	c2.1-4.1,5.6-6.2,10.5-6.2c5,0,8.6,2.1,10.6,6.2c1.2,2.3,1.8,5.2,1.8,8.5C217.7,134.8,217,138,215.6,140.4 M235.1,118
	c-2.3-5.9-6.1-10.5-11.3-13.8s-11.4-5-18.6-5c-7,0-13.1,1.6-18.2,4.8c-5.1,3.2-8.9,7.5-11.3,13c-1.8,4.3-2.7,9.1-2.7,14.6
	c0,6.5,1.1,11.9,3.4,16.1c2.5,4.9,6,8.6,10.4,11.1c4.4,2.6,9.5,3.8,15.1,3.8c6.2,0,11.2-1.6,15.1-4.8c0.3-0.3,0.5-0.4,0.7-0.3
	c0.2,0.1,0.3,0.3,0.3,0.7v12.9c0,3.3-1.1,5.9-3.3,8s-5,3.2-8.5,3.2c-3.3,0-5.9-1-8-3.1s-3.1-4.6-3.1-7.7V170c0-0.9-0.8-1.4-2.4-1.4
	h-15c-1.6,0-2.4,0.8-2.4,2.4v3.2c0,4.9,1.3,9.3,3.8,13.1c2.6,3.8,6.2,6.7,10.9,8.8s10,3.1,16.1,3.1c6.2,0,11.6-1,16.4-3.1
	s8.5-5.1,11.1-9c2.7-3.9,4-8.3,4-13.4v-42.1C237.6,126.6,236.7,122,235.1,118"/>
</svg>
