<?xml version="1.0" encoding="utf-8"?>
<!-- Generator: Adobe Illustrator 22.0.1, SVG Export Plug-In . SVG Version: 6.00 Build 0)  -->
<svg version="1.1" id="Ebene_1" xmlns="http://www.w3.org/2000/svg" xmlns:xlink="http://www.w3.org/1999/xlink" x="0px" y="0px"
	 viewBox="0 0 534 303" style="enable-background:new 0 0 534 303;" xml:space="preserve">
<style type="text/css">
	.st0{fill:#FFDE44;}
</style>
<g>
	<path class="st0" d="M187.2,95.7h16.3c1.6,0,2.4,0.8,2.4,2.4v96c0,1.6-0.8,2.4-2.4,2.4H188c-1.6,0-2.4-0.8-2.4-2.4v-78.5
		c0-0.3-0.1-0.5-0.3-0.7c-0.2-0.2-0.4-0.2-0.7-0.1l-12.7,2.6h-0.6c-1.4,0-2.2-0.7-2.2-2.2v-11c0-1.4,0.6-2.4,1.9-2.7l13.1-5.2
		C185,95.9,186,95.7,187.2,95.7z"/>
</g>
</svg>
