<?xml version="1.0" encoding="utf-8"?>
<!-- Generator: Adobe Illustrator 22.0.1, SVG Export Plug-In . SVG Version: 6.00 Build 0)  -->
<svg version="1.1" id="Ebene_1" xmlns="http://www.w3.org/2000/svg" xmlns:xlink="http://www.w3.org/1999/xlink" x="0px" y="0px"
	 viewBox="0 0 534 303" style="enable-background:new 0 0 534 303;" xml:space="preserve">
<style type="text/css">
	.st0{fill:#FFDE44;}
</style>
<g>
	<path class="st0" d="M237.6,164.3c0,5.6-0.9,10.6-2.7,15c-2.5,5.7-6.4,10.1-11.7,13.4c-5.3,3.3-11.5,4.9-18.7,4.9
		c-7.4,0-13.8-1.7-19.2-5.1c-5.4-3.4-9.3-8.1-11.7-14.2c-1.7-4.2-2.6-8.9-2.6-14.1v-43.4c0-5.2,1.4-9.8,4.1-13.8
		c2.7-4,6.6-7.1,11.5-9.2c4.9-2.2,10.5-3.2,16.9-3.2c6.2,0,11.8,1.1,16.6,3.2c4.8,2.2,8.5,5.2,11.2,9.1c2.6,3.9,4,8.4,4,13.5v3.3
		c0,1.6-0.8,2.4-2.4,2.4h-15.4c-0.8,0-1.4-0.1-1.8-0.4s-0.6-0.7-0.6-1.2v-1.4c0-3.2-1.1-5.8-3.2-7.9c-2.1-2.1-4.9-3.2-8.2-3.2
		c-3.6,0-6.5,1.1-8.7,3.2c-2.3,2.2-3.4,4.9-3.4,8.3v13.3c0,0.4,0.1,0.6,0.3,0.7c0.2,0.1,0.4,0,0.7-0.3c4-3.3,9.2-4.9,15.6-4.9
		c5.8,0,10.9,1.3,15.5,4c4.6,2.6,8.1,6.5,10.7,11.5C236.4,152.1,237.6,157.6,237.6,164.3z M217.3,164.6c0-3.8-0.8-7-2.3-9.5
		c-2.4-3.8-5.9-5.8-10.5-5.8c-5.2,0-8.8,2-10.8,5.9c-1.4,2.5-2.2,5.7-2.2,9.7c0,3.5,0.6,6.4,1.9,8.8c2.1,4.2,5.8,6.3,11,6.3
		c5,0,8.6-2.1,10.8-6.3C216.6,171.2,217.3,168.2,217.3,164.6z"/>
</g>
</svg>
