<?xml version="1.0" encoding="utf-8"?>
<!-- Generator: Adobe Illustrator 22.0.1, SVG Export Plug-In . SVG Version: 6.00 Build 0)  -->
<svg version="1.1" id="Ebene_1" xmlns="http://www.w3.org/2000/svg" xmlns:xlink="http://www.w3.org/1999/xlink" x="0px" y="0px"
	 viewBox="0 0 534 303" style="enable-background:new 0 0 534 303;" xml:space="preserve">
<style type="text/css">
	.st0{fill:#252525;}
</style>
<g>
	<path class="st0" d="M236.6,163.7c0,5.1-0.9,9.9-2.6,14.4c-2.4,6.1-6.3,11-11.7,14.4c-5.4,3.5-11.8,5.2-19.2,5.2
		c-7.3,0-13.7-1.8-19.2-5.5c-5.5-3.6-9.5-8.6-11.9-14.8c-1.2-3-1.9-6.8-2.3-11.4c0-1.6,0.8-2.4,2.4-2.4h15.6c1.5,0,2.4,0.8,2.6,2.4
		c0.2,2.3,0.7,4.4,1.4,6.3c0.9,2.5,2.3,4.4,4.3,5.8c2,1.4,4.3,2.1,7,2.1c5.4,0,9.1-2.4,11.1-7.1c1.3-2.9,2-6.2,2-10.1
		c0-4.1-0.8-7.8-2.3-11.1c-2.1-4.5-5.8-6.8-11-6.8c-1.7,0-3.9,0.9-6.6,2.7c-0.6,0.3-1.1,0.4-1.4,0.4c-0.8,0-1.4-0.3-2-1l-7.6-10.2
		c-0.4-0.5-0.6-1.1-0.6-1.7c0-0.6,0.3-1.2,0.9-1.7L208,114c0.3-0.2,0.4-0.4,0.3-0.6c-0.1-0.2-0.3-0.4-0.7-0.4h-33.3
		c-1.6,0-2.4-0.8-2.4-2.4V98.2c0-1.6,0.8-2.4,2.4-2.4h58.6c1.6,0,2.4,0.8,2.4,2.4v14.1c0,1.2-0.4,2.2-1.3,3l-18.9,17.1
		c-0.6,0.6-0.4,1,0.6,1.2c8.4,1.6,14.4,6.6,18,14.8C235.6,152.9,236.6,158,236.6,163.7z"/>
</g>
</svg>
