<?xml version="1.0" encoding="utf-8"?>
<!-- Generator: Adobe Illustrator 22.0.1, SVG Export Plug-In . SVG Version: 6.00 Build 0)  -->
<svg version="1.1" id="Ebene_1" xmlns="http://www.w3.org/2000/svg" xmlns:xlink="http://www.w3.org/1999/xlink" x="0px" y="0px"
	 viewBox="0 0 534 303" style="enable-background:new 0 0 534 303;" xml:space="preserve">
<style type="text/css">
	.st0{fill:#252525;}
</style>
<g>
	<path class="st0" d="M171.5,194.1V182c0-1.1,0.4-2.1,1.3-3c3.9-3.9,8.1-8.3,12.5-13.2c4.4-4.8,7.4-8.1,8.9-9.7
		c4.4-5,7.7-8.6,9.9-11c8.7-9.7,13.1-16.9,13.1-21.6c0-3.4-1.2-6.1-3.6-8.3c-2.4-2.2-5.5-3.2-9.4-3.2c-3.8,0-7,1.1-9.4,3.2
		c-2.4,2.2-3.6,5-3.6,8.6v2.9c0,1.6-0.8,2.4-2.4,2.4h-15.6c-1.6,0-2.4-0.8-2.4-2.4v-6.1c0.3-5.2,1.9-9.8,4.9-13.8s6.9-7,11.9-9.1
		c4.9-2.1,10.5-3.2,16.6-3.2c6.8,0,12.8,1.3,17.8,3.8s8.9,6,11.7,10.3c2.7,4.3,4.1,9.1,4.1,14.4c0,4-1,8.2-3,12.4s-5,8.8-9.1,13.7
		c-3.8,4.7-10.5,12-19.9,21.8c-0.1,0.1-2.4,2.5-6.8,7.2c-0.3,0.2-0.4,0.4-0.3,0.6c0.1,0.2,0.3,0.4,0.7,0.4h37.8
		c1.6,0,2.4,0.8,2.4,2.5v12.5c0,1.6-0.8,2.4-2.4,2.4h-63.4C172.3,196.6,171.5,195.8,171.5,194.1z"/>
</g>
</svg>
